<svg width="64" height="64" viewBox="0 0 64 64" fill="none" xmlns="http://www.w3.org/2000/svg">
<rect width="64" height="64" rx="5.12" fill="#783A3A"/>
<path d="M23.2651 21.1492C25.26 21.1492 27.0884 21.4998 28.7456 22.2058C30.4247 22.9099 31.8152 23.876 32.9087 25.1062L33.1098 25.3328L32.895 25.5457L28.8471 29.5535L28.6177 29.781L28.3921 29.5486C27.5653 28.6961 26.7348 28.073 25.9028 27.6697L25.8999 27.6677C25.1039 27.2697 24.1882 27.0671 23.146 27.0671C22.0992 27.0672 21.3091 27.2719 20.7446 27.6482L20.7368 27.6531C20.1983 27.9897 19.935 28.4676 19.935 29.1277C19.935 29.7591 20.1401 30.252 20.5415 30.6345L20.7143 30.78C21.1328 31.1148 21.6632 31.4184 22.312 31.6873C23.099 32.0021 23.9533 32.318 24.8735 32.6335H24.8745C25.8376 32.9546 26.7872 33.3288 27.7231 33.7566C28.6763 34.1923 29.5492 34.7512 30.3393 35.4324H30.3384C31.1684 36.0987 31.8287 36.9551 32.3218 37.9949C32.825 39.0294 33.0688 40.298 33.0688 41.7859C33.0688 44.5442 32.0798 46.7424 30.0923 48.3435L30.0903 48.3455C28.111 49.9124 25.4 50.6765 21.9956 50.6765C19.6607 50.6765 17.6303 50.3008 15.9136 49.5378L15.9077 49.5349C14.2237 48.7472 12.682 47.5684 11.2817 46.0066L11.0786 45.78L11.2944 45.5662L15.3423 41.5583L15.5845 41.3181L15.8081 41.575C16.6825 42.578 17.6424 43.3582 18.686 43.9197C19.7455 44.4494 20.9784 44.7195 22.3921 44.7195C23.6831 44.7195 24.6297 44.4861 25.27 44.0593L25.2749 44.0564C25.9283 43.6363 26.2386 43.0738 26.2388 42.3416C26.2388 41.6467 26.026 41.1105 25.6186 40.7029C25.1778 40.2621 24.5795 39.872 23.813 39.5398L23.8091 39.5378C23.0533 39.199 22.2034 38.8721 21.2593 38.5574L21.2573 38.5564C20.3237 38.2363 19.3895 37.8771 18.4565 37.4773L18.4497 37.4744V37.4734C17.5025 37.0404 16.622 36.5126 15.8091 35.8894L15.7993 35.8816V35.8806C14.9977 35.217 14.3488 34.4024 13.854 33.4402L13.853 33.4373C13.3484 32.4281 13.105 31.1852 13.105 29.7234C13.105 27.9512 13.5276 26.4056 14.3872 25.1023L14.3901 25.0984C15.2726 23.8024 16.485 22.8268 18.0161 22.1697L18.3052 22.0457C19.7652 21.4459 21.4204 21.1492 23.2651 21.1492Z" fill="white" stroke="#783A3A" stroke-width="0.64"/>
<path d="M34.7149 9.27966V34.141L44.504 22.1967L44.5997 22.0804H53.1417L52.6934 22.6068L41.5294 35.7377L53.0958 50.2142L53.5118 50.7338H38.4786L38.4053 50.517L34.7149 39.6254V50.7338H27.8448V9.27966H34.7149Z" fill="white" stroke="#783A3A" stroke-width="0.64"/>
</svg>
