<svg width="100" height="100" viewBox="0 0 100 100" fill="none" xmlns="http://www.w3.org/2000/svg">
<path d="M78.4209 31.6565C80.62 30.8434 83.0529 30.9367 85.1826 31.9172C87.1369 32.8376 88.6312 34.5115 89.3271 36.5549C90.5654 40.1087 88.6163 44.5676 87.5185 48.0549L83.9619 59.3879L80.9121 69.2629C79.1404 75.0741 79.0448 78.599 72.7177 80.7502C74.7524 83.902 74.323 87.6858 70.6152 89.2405C69.2125 89.8158 67.6397 89.8013 66.248 89.2004C62.5041 87.6026 62.5313 84.1408 64.0234 80.9163C58.226 80.9532 52.4282 80.949 46.6308 80.9036L44.1425 80.925C45.9846 84.2384 45.4125 88.0019 41.542 89.3459C40.1432 89.826 38.6104 89.7279 37.2841 89.0735C33.7575 87.3608 33.6592 84.0831 35.2949 80.9563C34.565 80.909 33.5463 80.8484 32.8711 80.6536C31.1724 80.175 29.7415 79.0253 28.9091 77.469C28.1219 75.9801 27.973 74.2351 28.4961 72.634C29.107 70.7909 30.6182 69.4271 32.4394 68.8157C34.9441 67.9749 38.53 68.4066 41.1884 68.4084C44.2156 68.4105 66.6588 68.7487 67.8554 68.134C68.5933 67.7539 69.0595 67.0492 69.2988 66.2698C69.4686 65.709 69.4903 65.1127 69.1728 64.5979C68.6833 63.8053 67.5232 63.4767 66.6611 63.3508C64.7341 63.0697 62.5547 63.287 60.5966 63.2903L47.6279 63.3088C43.7373 63.3138 39.4661 63.5768 35.7705 62.6975C28.8327 61.1618 24.696 56.342 22.9531 49.6389C21.992 45.9434 20.9391 40.8784 16.4209 40.6389C14.9918 40.5633 10.617 41.128 10.1328 39.5403C8.76509 35.0531 18.3682 37.1697 20.3574 37.9602C21.212 34.0106 23.4641 32.0688 27.2929 31.1741C35.8818 30.5143 36.8566 37.7023 38.5781 44.1086C48.0397 39.4261 61.8296 39.68 71.375 44.0168C72.964 39.5403 73.2426 33.6282 78.4209 31.6565ZM41.0088 83.0774C40.5712 82.6063 39.9099 82.414 39.2881 82.5774C38.3894 82.8141 37.8334 83.7148 38.0254 84.6243C38.2175 85.5334 39.0893 86.1316 40.0068 85.9846C40.6419 85.8829 41.1703 85.4396 41.3799 84.8313C41.5891 84.2233 41.4463 83.5488 41.0088 83.0774ZM70.1299 83.7502C69.8576 82.8568 68.9274 82.3386 68.0234 82.5754C67.4045 82.7376 66.9259 83.2246 66.7724 83.845C66.6208 84.4659 66.8218 85.1206 67.2949 85.55C67.7679 85.9794 68.4383 86.115 69.041 85.9036C69.9232 85.5943 70.4038 84.644 70.1299 83.7502ZM84.5908 35.9592C82.6693 34.166 79.6258 34.4878 77.9746 36.427C77.0414 37.523 76.7876 38.9328 76.373 40.2698C74.2817 46.4275 74.075 54.3649 65.6933 54.8528C62.148 55.059 57.8113 54.8893 54.2861 54.9036C51.7343 54.914 45.0205 55.1237 42.8584 54.7043C41.3995 54.423 40.0387 53.7656 38.9111 52.7981C32.9459 47.6172 35.8273 34.3097 27.872 34.7913C27.7667 34.7977 27.6608 34.8051 27.5556 34.8137C26.1142 35.3518 24.9002 36.121 24.2461 37.6028C23.3002 39.7454 24.7646 42.2376 25.3066 44.2942C26.9147 50.1053 27.9585 55.6249 34.1865 58.219C35.7062 58.8378 37.3068 59.2363 38.9394 59.4016C41.152 59.6473 45.0219 59.54 47.375 59.5354L61.8222 59.5012C64.0561 59.4965 66.7291 59.1719 68.8662 59.8713C70.5938 60.4373 72.0259 61.8868 72.7109 63.5588C73.3812 65.1964 73.2145 66.8767 72.5205 68.4827C71.894 69.9376 70.7875 71.1072 69.29 71.6663C66.6196 72.6624 45.2597 72.1449 40.6504 72.1575C38.4286 72.1637 35.7666 71.8902 33.6015 72.3967C32.9975 72.538 32.409 72.9155 32.1132 73.4709C31.8349 73.9943 31.8404 74.6151 32.0351 75.1653C32.311 75.9447 32.9491 76.5448 33.6953 76.8743C34.163 77.079 34.6655 77.1941 35.1757 77.2151C37.1651 77.3045 40.6521 77.1445 42.8427 77.1428L61.3711 77.1467C64.889 77.1475 68.5868 77.3134 72.0664 77.0129C73.7611 76.8662 75.334 74.6399 75.8291 73.1526C76.925 69.8491 77.8437 66.477 78.914 63.1624C79.8328 59.4801 86.0496 41.7804 86.0351 39.2258C86.0186 37.9857 85.4965 36.8062 84.5908 35.9592ZM69.8252 48.1252C68.9923 44.6632 54.4445 44.2836 51.3056 44.553C48.7741 44.814 34.1873 46.5724 42.834 50.8088C44.2224 51.4888 56.4601 51.1719 58.7627 51.1702C61.4915 51.1916 69.4448 52.0053 69.8252 48.1252ZM42.7744 11.1028C49.6961 10.8246 57.1576 11.2323 64.1113 11.0344C68.6959 10.9038 72.9353 11.9837 76.2158 15.3723C80.1793 19.4678 80.6834 23.3156 80.667 28.6809C79.2661 28.8736 78.2726 29.1468 76.9648 29.6409C77.0178 25.9177 77.1108 22.7547 74.8769 19.4885C73.096 16.8846 70.5421 15.4124 67.4863 14.8547C61.2432 14.2776 53.9825 15.0968 47.6445 14.7336C45.9275 14.6354 43.3626 14.7078 41.6972 15.0823C39.6967 15.5266 37.8602 16.5209 36.3935 17.9524C32.9107 21.4026 33.1041 25.3503 33.1152 29.76C31.8067 29.2032 30.7585 28.9271 29.3789 28.6497C29.2865 24.2151 29.5719 20.88 32.2802 17.1663C34.9578 13.4951 38.3969 11.813 42.7744 11.1028Z" fill="black"/>
</svg>
