<svg width="100" height="100" viewBox="0 0 100 100" fill="none" xmlns="http://www.w3.org/2000/svg">
<rect width="100" height="100" rx="8" fill="white"/>
<path d="M36.3516 33.046C39.4698 33.046 42.3278 33.5944 44.918 34.6984H44.917C47.5397 35.7985 49.7118 37.306 51.4199 39.2277L51.7344 39.5822L51.3975 39.9152L45.0742 46.1769L44.7148 46.5323L44.3633 46.17C43.0714 44.8378 41.7737 43.8639 40.4736 43.2335L40.4688 43.2316C39.225 42.6097 37.7944 42.2921 36.166 42.2921C34.5302 42.2921 33.2951 42.6123 32.4131 43.2003L32.4014 43.2081C31.5599 43.734 31.1485 44.4805 31.1484 45.5118C31.1484 46.504 31.4732 47.277 32.1074 47.8761C32.7979 48.487 33.7136 49.0356 34.8691 49.5138H34.8682C36.0967 50.0051 37.429 50.4969 38.8652 50.9894C40.3704 51.4911 41.8557 52.0766 43.3184 52.7452C44.8021 53.4235 46.1598 54.2928 47.3906 55.3517L47.6318 55.5509C48.8225 56.5636 49.7791 57.8387 50.5039 59.3673L50.6465 59.6749C51.3361 61.233 51.6699 63.1108 51.6699 65.2902C51.6699 69.6001 50.1252 73.0354 47.0195 75.5372L47.0166 75.5402C43.9239 77.9886 39.6875 79.1817 34.3682 79.1818C30.72 79.1818 27.5476 78.5946 24.8652 77.4025L24.8564 77.3986C22.225 76.1677 19.816 74.3263 17.6279 71.8859L17.3105 71.5314L17.6484 71.1964L23.9727 64.9347L24.3506 64.5597L24.7012 64.9611C26.0711 66.5325 27.5743 67.7532 29.21 68.631C30.8628 69.4547 32.7848 69.8741 34.9883 69.8741C37.0055 69.8741 38.4839 69.5089 39.4844 68.8419L39.4912 68.837C40.5123 68.1806 40.998 67.3026 40.998 66.1583C40.998 65.0722 40.6652 64.2347 40.0283 63.5978C39.3395 62.9089 38.405 62.2995 37.207 61.7804L37.2012 61.7784C36.0203 61.2491 34.6928 60.7379 33.2178 60.2462L33.2139 60.2452C31.7551 59.7451 30.2966 59.1825 28.8389 58.5577L28.8281 58.5529C27.3481 57.8763 25.9724 57.0511 24.7021 56.0773L24.6943 56.0714L24.6875 56.0656C23.4345 55.0286 22.4209 53.755 21.6475 52.2511L21.6445 52.2452C20.8562 50.6684 20.4756 48.7264 20.4756 46.4425C20.4756 43.6735 21.1373 41.2592 22.4805 39.2228L22.4844 39.2169C23.8646 37.1898 25.7615 35.6636 28.1572 34.6368C30.5453 33.5721 33.2803 33.0461 36.3516 33.046Z" fill="#783A3A" stroke="white"/>
<path d="M54.2424 14.5V53.3457L69.5373 34.6826L69.6877 34.5H83.0334L82.3332 35.3242L64.8898 55.8408L82.9631 78.46L83.6115 79.2725H60.1232L60.008 78.9326L54.2424 61.917V79.2725H43.508V14.5H54.2424Z" fill="#783A3A" stroke="white"/>
</svg>
